<svg width="20" height="20" viewBox="0 0 20 20" fill="none" xmlns="http://www.w3.org/2000/svg">
<path d="M0.540254 9.74754C0.545099 14.9921 4.77851 19.2788 10.0747 19.2755C15.3354 19.2723 19.5979 15.026 19.5963 9.7427C19.5946 4.45295 15.3144 0.221159 10.0666 0.219544C4.80758 0.217929 0.540254 4.48849 0.540254 9.74754ZM8.42238 11.8344C8.42238 10.6601 8.42399 9.4875 8.42076 8.31325C8.41915 7.86908 8.57743 7.49274 8.90532 7.20039C9.42218 6.73845 10.023 6.64153 10.6675 6.86928C11.2829 7.08733 11.6947 7.67849 11.6915 8.34717C11.6786 10.686 11.6851 13.0248 11.6883 15.3636C11.6883 16.6848 10.556 16.9077 10.015 16.9061C9.2009 16.9028 8.40138 16.2471 8.41753 15.3054C8.43853 14.1489 8.42238 12.9908 8.42238 11.8344ZM8.31093 4.3302C8.31254 3.35463 9.09106 2.57772 10.0683 2.57772C11.0471 2.57772 11.8288 3.36109 11.8272 4.33989C11.8256 5.30739 11.0358 6.0956 10.0666 6.0956C9.09106 6.0956 8.31093 5.31062 8.31093 4.3302Z" fill="#4E4E4E"/>
</svg>
